<svg width="25" height="24" viewBox="0 0 25 24" fill="none" xmlns="http://www.w3.org/2000/svg">
<path d="M12.7998 15C14.4567 15 15.7998 13.6569 15.7998 12C15.7998 10.3431 14.4567 9 12.7998 9C11.143 9 9.7998 10.3431 9.7998 12C9.7998 13.6569 11.143 15 12.7998 15Z" fill="#999999"/>
<path fill-rule="evenodd" clip-rule="evenodd" d="M2.12322 11.4467C3.61047 6.97571 7.82772 3.75 12.8003 3.75C17.7706 3.75 21.9863 6.97271 23.4754 11.4405C23.5957 11.8015 23.5958 12.1922 23.4757 12.5533C21.9884 17.0243 17.7712 20.25 12.7986 20.25C7.82828 20.25 3.61264 17.0273 2.12354 12.5595C2.0032 12.1985 2.00309 11.8078 2.12322 11.4467ZM18.0498 12C18.0498 14.8995 15.6993 17.25 12.7998 17.25C9.90031 17.25 7.5498 14.8995 7.5498 12C7.5498 9.1005 9.90031 6.75 12.7998 6.75C15.6993 6.75 18.0498 9.1005 18.0498 12Z" fill="#999999"/>
</svg>
